<svg width="16" height="16" viewBox="0 0 16 16" fill="none" xmlns="http://www.w3.org/2000/svg">
<path d="M4.5 14.5C5.05228 14.5 5.5 14.0523 5.5 13.5C5.5 12.9477 5.05228 12.5 4.5 12.5C3.94772 12.5 3.5 12.9477 3.5 13.5C3.5 14.0523 3.94772 14.5 4.5 14.5Z" fill="black"/>
<path d="M12 14.5C12.5523 14.5 13 14.0523 13 13.5C13 12.9477 12.5523 12.5 12 12.5C11.4477 12.5 11 12.9477 11 13.5C11 14.0523 11.4477 14.5 12 14.5Z" fill="black"/>
<path d="M13.7844 4.17917L13.7852 4.18011C13.8321 4.23613 13.8661 4.30179 13.8847 4.37242C13.9033 4.44306 13.9062 4.51692 13.893 4.58878L13.8929 4.58941L12.8026 10.5894L12.8026 10.5896C12.7817 10.7048 12.721 10.809 12.6312 10.884C12.5413 10.959 12.4279 11 12.3109 11H12.3107H4.19489H4.19474C4.07772 11 3.96441 10.959 3.87455 10.884C3.78469 10.8091 3.72399 10.705 3.70304 10.5898L3.70301 10.5897L2.50819 4.03735L2.5048 4.01877L2.50002 4.00051L2.49995 4.00011L2.49798 3.98159L2.49464 3.96326L2.19885 2.34107L2.42657 3.58971L2.5014 4H2.91846L13.4009 4L13.4015 4C13.4746 3.99991 13.5468 4.01592 13.613 4.04689C13.6792 4.07786 13.7377 4.12302 13.7844 4.17917Z" stroke="black"/>
</svg>
