<svg id="Layer_1" data-name="Layer 1" xmlns="http://www.w3.org/2000/svg" viewBox="0 0 135 140">
  <defs>
    <style>
      .cls-1 {
        fill: #f25555;
      }
    </style>
  </defs>
  <g>
    <path class="cls-1" d="M120.41,93.4a4.23,4.23,0,1,0-7.87,3.13,9,9,0,0,1-1,8.43,8.94,8.94,0,0,1-7.5,4H30.86a9.08,9.08,0,0,1-7.73-13.86L59.75,35.76a9.07,9.07,0,0,1,15.43,0l27.07,43.84a4.23,4.23,0,0,0,7.2-4.44l-27-43.86a17.56,17.56,0,0,0-29.87,0L15.92,90.61A17.55,17.55,0,0,0,30.86,117.4h73.21a17.29,17.29,0,0,0,14.52-7.68A17.51,17.51,0,0,0,120.41,93.4Z"/>
    <path class="cls-1" d="M67.46,100.68a4.24,4.24,0,0,0,0-8.47h0a4.24,4.24,0,1,0,0,8.47Z"/>
    <path class="cls-1" d="M71.69,81.63V50.52a4.24,4.24,0,1,0-8.47,0V81.63a4.24,4.24,0,0,0,8.47,0Z"/>
  </g>
</svg>
