<svg width="246" height="24" viewBox="0 0 246 24" fill="none" xmlns="http://www.w3.org/2000/svg">
<path d="M4.38643 0C5.17206 0 5.84857 0.265645 6.41597 0.796935C6.98337 1.30779 7.26707 1.92082 7.26707 2.63602C7.26707 3.33078 6.98337 3.94381 6.41597 4.4751C5.84857 5.00639 5.17206 5.27203 4.38643 5.27203C3.6008 5.27203 2.92428 5.00639 2.35689 4.4751C1.81131 3.94381 1.53852 3.33078 1.53852 2.63602C1.53852 1.92082 1.81131 1.30779 2.35689 0.796935C2.92428 0.265645 3.6008 0 4.38643 0ZM6.80878 8.0613V23.5402H2.6515V11.3716H0V8.0613H6.80878Z" fill="white"/>
<path d="M16.2036 8.0613V10.2682C16.7055 9.63474 17.382 9.04215 18.2331 8.49042C19.1061 7.9387 20.099 7.66284 21.212 7.66284C22.8923 7.66284 24.2999 8.19413 25.4347 9.2567C26.5695 10.3193 27.1369 11.9132 27.1369 14.0383V23.5402H22.9796L22.9469 14.5594C22.9469 13.5172 22.6741 12.7407 22.1285 12.2299C21.6048 11.719 20.8737 11.4636 19.9353 11.4636C19.1933 11.4636 18.495 11.6884 17.8403 12.1379C17.2075 12.5875 16.6619 13.1188 16.2036 13.7318V23.5402H12.0463V8.0613H16.2036Z" fill="white"/>
<path d="M37.4156 3.55556V8.0613H41.9984V11.3103H37.4156V17.9923C37.4156 18.6871 37.5792 19.2388 37.9066 19.6475C38.2558 20.0358 38.7686 20.2299 39.4451 20.2299C40.0343 20.2299 40.5363 20.1686 40.9509 20.046C41.3874 19.9234 41.7911 19.7497 42.1621 19.5249V22.6207C41.7474 23.0089 41.2237 23.3359 40.5908 23.6015C39.9798 23.8672 39.2051 24 38.2667 24C36.7827 24 35.5715 23.5607 34.6331 22.682C33.7166 21.7829 33.2583 20.5568 33.2583 19.0038V11.3103H30.2794V9.31801C31.3269 8.97063 32.2872 8.31673 33.1601 7.35632C34.0548 6.39591 34.7641 5.12899 35.2878 3.55556H37.4156Z" fill="white"/>
<path d="M53.4882 7.66284C55.1031 7.66284 56.4889 7.98978 57.6455 8.64368C58.824 9.29757 59.7187 10.2069 60.3297 11.3716C60.9626 12.516 61.279 13.8442 61.279 15.3563V17.0115H49.2982C49.5164 18.0536 50.062 18.8914 50.9349 19.5249C51.8079 20.1584 52.8772 20.4751 54.1429 20.4751C55.3432 20.4751 56.4343 20.2503 57.4164 19.8008C58.3984 19.3512 59.184 18.8914 59.7733 18.4215L59.7405 22.0383C59.2168 22.4674 58.4311 22.9068 57.3836 23.3563C56.358 23.7854 55.2232 24 53.9792 24C52.3425 24 50.8476 23.6526 49.4946 22.9579C48.1634 22.2631 47.0941 21.3129 46.2866 20.1073C45.501 18.9017 45.1082 17.5224 45.1082 15.9693C45.1082 14.4572 45.4683 13.0779 46.1884 11.8314C46.9086 10.5849 47.9015 9.58365 49.1673 8.82759C50.433 8.05109 51.8733 7.66284 53.4882 7.66284ZM53.39 11.0651C52.3643 11.0651 51.5023 11.3614 50.804 11.954C50.1057 12.5466 49.6255 13.3435 49.3637 14.3448H57.2854C57.1981 13.2414 56.7617 12.424 55.9761 11.8927C55.1904 11.341 54.3284 11.0651 53.39 11.0651Z" fill="white"/>
<path d="M75.4858 12.4138C74.7875 12.046 74.0564 11.8621 73.2926 11.8621C72.3324 11.8621 71.5359 12.1584 70.903 12.751C70.2701 13.3231 69.7136 14.0383 69.2335 14.8966V23.5402H65.0762V8.0613H69.2335V10.9732C69.8009 10.0536 70.4665 9.28736 71.2303 8.67433C72.016 8.0613 72.8998 7.75479 73.8818 7.75479C74.4711 7.75479 75.0057 7.84674 75.4858 8.03065V12.4138Z" fill="white"/>
<path d="M82.1637 0C82.9493 0 83.6258 0.265645 84.1932 0.796935C84.7606 1.30779 85.0443 1.92082 85.0443 2.63602C85.0443 3.33078 84.7606 3.94381 84.1932 4.4751C83.6258 5.00639 82.9493 5.27203 82.1637 5.27203C81.378 5.27203 80.7015 5.00639 80.1341 4.4751C79.5886 3.94381 79.3158 3.33078 79.3158 2.63602C79.3158 1.92082 79.5886 1.30779 80.1341 0.796935C80.7015 0.265645 81.378 0 82.1637 0ZM84.586 8.0613V23.5402H80.4287V11.3716H77.7772V8.0613H84.586Z" fill="white"/>
<path d="M97.5162 7.66284C99.1311 7.66284 100.604 8.03065 101.935 8.76628C103.267 9.48148 104.336 10.4623 105.143 11.7088C105.973 12.9349 106.387 14.3142 106.387 15.8467C106.387 17.3793 105.973 18.7586 105.143 19.9847C104.336 21.2107 103.267 22.1916 101.935 22.9272C100.604 23.6424 99.1311 24 97.5162 24C95.9231 24 94.45 23.6424 93.097 22.9272C91.7658 22.1916 90.6965 21.2107 89.889 19.9847C89.0816 18.7586 88.6778 17.3793 88.6778 15.8467C88.6778 14.3142 89.0816 12.9349 89.889 11.7088C90.6965 10.4623 91.7658 9.48148 93.097 8.76628C94.45 8.03065 95.9231 7.66284 97.5162 7.66284ZM97.5162 11.433C96.7305 11.433 95.9995 11.6066 95.323 11.954C94.6464 12.3014 94.1009 12.802 93.6862 13.4559C93.2934 14.1098 93.097 14.9068 93.097 15.8467C93.097 16.7867 93.2934 17.5837 93.6862 18.2375C94.1009 18.8914 94.6464 19.3921 95.323 19.7395C95.9995 20.0664 96.7305 20.2299 97.5162 20.2299C98.3018 20.2299 99.0329 20.0664 99.7094 19.7395C100.386 19.3921 100.931 18.8914 101.346 18.2375C101.761 17.5837 101.968 16.7867 101.968 15.8467C101.968 14.9068 101.761 14.1098 101.346 13.4559C100.931 12.802 100.386 12.3014 99.7094 11.954C99.0329 11.6066 98.3018 11.433 97.5162 11.433Z" fill="white"/>
<path d="M120.725 12.4138C120.027 12.046 119.296 11.8621 118.532 11.8621C117.572 11.8621 116.775 12.1584 116.142 12.751C115.509 13.3231 114.953 14.0383 114.473 14.8966V23.5402H110.315V8.0613H114.473V10.9732C115.04 10.0536 115.706 9.28736 116.469 8.67433C117.255 8.0613 118.139 7.75479 119.121 7.75479C119.71 7.75479 120.245 7.84674 120.725 8.03065V12.4138Z" fill="white"/>
<path d="M137.911 8.0613V10.023C138.413 9.4304 139.013 8.88889 139.711 8.39847C140.431 7.90805 141.348 7.66284 142.461 7.66284C143.617 7.66284 144.665 7.91826 145.603 8.42912C146.542 8.91954 147.273 9.66539 147.796 10.6667C148.451 9.82886 149.215 9.12388 150.088 8.55172C150.961 7.95913 151.976 7.66284 153.132 7.66284C154.245 7.66284 155.26 7.90805 156.176 8.39847C157.093 8.86845 157.824 9.57343 158.37 10.5134C158.937 11.4534 159.221 12.6284 159.221 14.0383V23.5402H155.063L155.031 14.5594C155.031 13.5172 154.736 12.7407 154.147 12.2299C153.58 11.719 152.827 11.4636 151.888 11.4636C151.168 11.4636 150.546 11.6782 150.022 12.1073C149.499 12.516 149.008 13.0064 148.549 13.5785V23.5402H144.392L144.359 14.5594C144.359 13.5172 144.065 12.7407 143.475 12.2299C142.908 11.719 142.166 11.4636 141.25 11.4636C140.551 11.4636 139.929 11.6679 139.384 12.0766C138.838 12.4649 138.347 12.9246 137.911 13.4559V23.5402H133.753V8.0613H137.911Z" fill="white"/>
<path d="M170.514 7.66284C171.409 7.66284 172.315 7.85696 173.231 8.24521C174.148 8.63346 174.912 9.15453 175.523 9.80843V8.0613H179.68V23.5402H175.523V20.9349C175.042 21.7727 174.344 22.4981 173.428 23.1111C172.511 23.7037 171.442 24 170.22 24C168.888 24 167.655 23.6833 166.521 23.0498C165.408 22.4163 164.513 21.4968 163.836 20.2912C163.16 19.0856 162.822 17.6245 162.822 15.908C162.822 14.1916 163.16 12.7203 163.836 11.4943C164.535 10.2682 165.462 9.32822 166.619 8.67433C167.797 8 169.096 7.66284 170.514 7.66284ZM171.365 11.4636C170.492 11.4636 169.739 11.6782 169.107 12.1073C168.496 12.516 168.015 13.0575 167.666 13.7318C167.317 14.4061 167.143 15.1315 167.143 15.908C167.143 17.0728 167.514 18.0639 168.255 18.8812C169.019 19.6986 170.023 20.1073 171.267 20.1073C172.009 20.1073 172.696 19.9234 173.329 19.5556C173.984 19.1877 174.508 18.6769 174.901 18.023C175.315 17.3487 175.523 16.5415 175.523 15.6015V13.3946C174.933 12.802 174.29 12.3321 173.591 11.9847C172.915 11.6373 172.173 11.4636 171.365 11.4636Z" fill="white"/>
<path d="M195.196 12.4138C194.498 12.046 193.767 11.8621 193.003 11.8621C192.043 11.8621 191.246 12.1584 190.613 12.751C189.98 13.3231 189.424 14.0383 188.944 14.8966V23.5402H184.786V8.0613H188.944V10.9732C189.511 10.0536 190.177 9.28736 190.941 8.67433C191.726 8.0613 192.61 7.75479 193.592 7.75479C194.181 7.75479 194.716 7.84674 195.196 8.03065V12.4138Z" fill="white"/>
<path d="M202.561 1.47126V14.9579L209.305 8.0613H214.509L207.373 14.7739L214.869 23.5402H209.632L204.624 17.3793L202.561 19.3103V23.5402H198.404V1.47126H202.561Z" fill="white"/>
<path d="M223.675 7.66284C225.29 7.66284 226.676 7.98978 227.832 8.64368C229.011 9.29757 229.906 10.2069 230.517 11.3716C231.149 12.516 231.466 13.8442 231.466 15.3563V17.0115H219.485C219.703 18.0536 220.249 18.8914 221.122 19.5249C221.995 20.1584 223.064 20.4751 224.33 20.4751C225.53 20.4751 226.621 20.2503 227.603 19.8008C228.585 19.3512 229.371 18.8914 229.96 18.4215L229.927 22.0383C229.404 22.4674 228.618 22.9068 227.57 23.3563C226.545 23.7854 225.41 24 224.166 24C222.529 24 221.034 23.6526 219.681 22.9579C218.35 22.2631 217.281 21.3129 216.473 20.1073C215.688 18.9017 215.295 17.5224 215.295 15.9693C215.295 14.4572 215.655 13.0779 216.375 11.8314C217.095 10.5849 218.088 9.58365 219.354 8.82759C220.62 8.05109 222.06 7.66284 223.675 7.66284ZM223.577 11.0651C222.551 11.0651 221.689 11.3614 220.991 11.954C220.292 12.5466 219.812 13.3435 219.551 14.3448H227.472C227.385 13.2414 226.949 12.424 226.163 11.8927C225.377 11.341 224.515 11.0651 223.577 11.0651Z" fill="white"/>
<path d="M241.253 3.55556V8.0613H245.836V11.3103H241.253V17.9923C241.253 18.6871 241.417 19.2388 241.745 19.6475C242.094 20.0358 242.607 20.2299 243.283 20.2299C243.872 20.2299 244.374 20.1686 244.789 20.046C245.225 19.9234 245.629 19.7497 246 19.5249V22.6207C245.585 23.0089 245.062 23.3359 244.429 23.6015C243.818 23.8672 243.043 24 242.105 24C240.621 24 239.409 23.5607 238.471 22.682C237.555 21.7829 237.096 20.5568 237.096 19.0038V11.3103H234.117V9.31801C235.165 8.97063 236.125 8.31673 236.998 7.35632C237.893 6.39591 238.602 5.12899 239.126 3.55556H241.253Z" fill="white"/>
</svg>
