<svg width="461" height="48" viewBox="0 0 461 48" fill="none" xmlns="http://www.w3.org/2000/svg">
<path d="M8.21456 0C9.68582 0 10.9527 0.53129 12.0153 1.59387C13.0779 2.61558 13.6092 3.84163 13.6092 5.27203C13.6092 6.66156 13.0779 7.88761 12.0153 8.95019C10.9527 10.0128 9.68582 10.5441 8.21456 10.5441C6.7433 10.5441 5.47637 10.0128 4.41379 8.95019C3.39208 7.88761 2.88123 6.66156 2.88123 5.27203C2.88123 3.84163 3.39208 2.61558 4.41379 1.59387C5.47637 0.53129 6.7433 0 8.21456 0ZM12.751 16.1226V47.0805H4.96552V22.7433H0V16.1226H12.751Z" fill="black"/>
<path d="M30.3448 16.1226V20.5364C31.2848 19.2695 32.5517 18.0843 34.1456 16.9808C35.7803 15.8774 37.6398 15.3257 39.7241 15.3257C42.871 15.3257 45.507 16.3883 47.6322 18.5134C49.7573 20.6386 50.8199 23.8263 50.8199 28.0766V47.0805H43.0345L42.9732 29.1188C42.9732 27.0345 42.4623 25.4815 41.4406 24.4598C40.4598 23.4381 39.0907 22.9272 37.3333 22.9272C35.9438 22.9272 34.636 23.3768 33.41 24.2759C32.2248 25.175 31.2031 26.2375 30.3448 27.4636V47.0805H22.5594V16.1226H30.3448Z" fill="black"/>
<path d="M70.069 7.11111V16.1226H78.6513V22.6207H70.069V35.9847C70.069 37.3742 70.3755 38.4776 70.9885 39.295C71.6424 40.0715 72.6028 40.4598 73.8697 40.4598C74.9732 40.4598 75.9132 40.3372 76.6897 40.092C77.507 39.8467 78.2631 39.4994 78.9579 39.0498V45.2414C78.1814 46.0179 77.2005 46.6718 76.0153 47.2031C74.871 47.7344 73.4202 48 71.6628 48C68.8838 48 66.6156 47.1213 64.8582 45.364C63.1418 43.5658 62.2835 41.1137 62.2835 38.0077V22.6207H56.705V18.636C58.6667 17.9413 60.4649 16.6335 62.0996 14.7126C63.7752 12.7918 65.1034 10.258 66.0843 7.11111H70.069Z" fill="black"/>
<path d="M100.169 15.3257C103.193 15.3257 105.788 15.9796 107.954 17.2874C110.161 18.5951 111.837 20.4138 112.981 22.7433C114.166 25.0319 114.759 27.6884 114.759 30.7126V34.023H92.3218C92.7305 36.1073 93.7522 37.7829 95.387 39.0498C97.0217 40.3167 99.0243 40.9502 101.395 40.9502C103.642 40.9502 105.686 40.5006 107.525 39.6015C109.364 38.7024 110.835 37.7829 111.939 36.8429L111.877 44.0766C110.897 44.9349 109.425 45.8135 107.464 46.7126C105.543 47.5709 103.418 48 101.088 48C98.023 48 95.2235 47.3052 92.6897 45.9157C90.1967 44.5262 88.1941 42.6258 86.682 40.2146C85.2107 37.8033 84.4751 35.0447 84.4751 31.9387C84.4751 28.9144 85.1494 26.1558 86.4981 23.6628C87.8467 21.1699 89.7063 19.1673 92.0766 17.6552C94.447 16.1022 97.1443 15.3257 100.169 15.3257ZM99.9847 22.1303C98.0639 22.1303 96.4496 22.7229 95.1418 23.908C93.834 25.0932 92.9349 26.6871 92.4445 28.6897H107.28C107.116 26.4828 106.299 24.848 104.828 23.7854C103.356 22.682 101.742 22.1303 99.9847 22.1303Z" fill="black"/>
<path d="M141.364 24.8276C140.056 24.092 138.687 23.7241 137.257 23.7241C135.458 23.7241 133.967 24.3167 132.782 25.5019C131.596 26.6462 130.554 28.0766 129.655 29.7931V47.0805H121.87V16.1226H129.655V21.9464C130.718 20.1073 131.964 18.5747 133.395 17.3487C134.866 16.1226 136.521 15.5096 138.36 15.5096C139.464 15.5096 140.465 15.6935 141.364 16.0613V24.8276Z" fill="black"/>
<path d="M153.87 0C155.341 0 156.608 0.53129 157.671 1.59387C158.733 2.61558 159.264 3.84163 159.264 5.27203C159.264 6.66156 158.733 7.88761 157.671 8.95019C156.608 10.0128 155.341 10.5441 153.87 10.5441C152.398 10.5441 151.132 10.0128 150.069 8.95019C149.047 7.88761 148.536 6.66156 148.536 5.27203C148.536 3.84163 149.047 2.61558 150.069 1.59387C151.132 0.53129 152.398 0 153.87 0ZM158.406 16.1226V47.0805H150.621V22.7433H145.655V16.1226H158.406Z" fill="black"/>
<path d="M182.621 15.3257C185.645 15.3257 188.404 16.0613 190.897 17.5326C193.39 18.963 195.392 20.9246 196.904 23.4176C198.457 25.8697 199.234 28.6284 199.234 31.6935C199.234 34.7586 198.457 37.5172 196.904 39.9693C195.392 42.4215 193.39 44.3831 190.897 45.8544C188.404 47.2848 185.645 48 182.621 48C179.637 48 176.879 47.2848 174.345 45.8544C171.852 44.3831 169.849 42.4215 168.337 39.9693C166.825 37.5172 166.069 34.7586 166.069 31.6935C166.069 28.6284 166.825 25.8697 168.337 23.4176C169.849 20.9246 171.852 18.963 174.345 17.5326C176.879 16.0613 179.637 15.3257 182.621 15.3257ZM182.621 22.8659C181.149 22.8659 179.78 23.2133 178.513 23.908C177.246 24.6028 176.225 25.6041 175.448 26.9119C174.713 28.2197 174.345 29.8135 174.345 31.6935C174.345 33.5734 174.713 35.1673 175.448 36.4751C176.225 37.7829 177.246 38.7842 178.513 39.4789C179.78 40.1328 181.149 40.4598 182.621 40.4598C184.092 40.4598 185.461 40.1328 186.728 39.4789C187.995 38.7842 189.017 37.7829 189.793 36.4751C190.57 35.1673 190.958 33.5734 190.958 31.6935C190.958 29.8135 190.57 28.2197 189.793 26.9119C189.017 25.6041 187.995 24.6028 186.728 23.908C185.461 23.2133 184.092 22.8659 182.621 22.8659Z" fill="black"/>
<path d="M226.084 24.8276C224.777 24.092 223.407 23.7241 221.977 23.7241C220.179 23.7241 218.687 24.3167 217.502 25.5019C216.317 26.6462 215.275 28.0766 214.375 29.7931V47.0805H206.59V16.1226H214.375V21.9464C215.438 20.1073 216.685 18.5747 218.115 17.3487C219.586 16.1226 221.241 15.5096 223.08 15.5096C224.184 15.5096 225.185 15.6935 226.084 16.0613V24.8276Z" fill="black"/>
<path d="M258.268 16.1226V20.046C259.208 18.8608 260.332 17.7778 261.64 16.7969C262.989 15.8161 264.705 15.3257 266.789 15.3257C268.955 15.3257 270.917 15.8365 272.674 16.8582C274.432 17.8391 275.801 19.3308 276.782 21.3333C278.008 19.6577 279.438 18.2478 281.073 17.1034C282.708 15.9183 284.608 15.3257 286.774 15.3257C288.858 15.3257 290.759 15.8161 292.475 16.7969C294.192 17.7369 295.561 19.1469 296.582 21.0268C297.645 22.9068 298.176 25.2567 298.176 28.0766V47.0805H290.391L290.329 29.1188C290.329 27.0345 289.778 25.4815 288.674 24.4598C287.612 23.4381 286.202 22.9272 284.444 22.9272C283.096 22.9272 281.931 23.3563 280.95 24.2146C279.969 25.0319 279.05 26.0128 278.192 27.1571V47.0805H270.406L270.345 29.1188C270.345 27.0345 269.793 25.4815 268.69 24.4598C267.627 23.4381 266.238 22.9272 264.521 22.9272C263.213 22.9272 262.049 23.3359 261.027 24.1533C260.005 24.9298 259.086 25.8493 258.268 26.9119V47.0805H250.483V16.1226H258.268Z" fill="black"/>
<path d="M319.326 15.3257C321.001 15.3257 322.697 15.7139 324.414 16.4904C326.13 17.2669 327.561 18.3091 328.705 19.6169V16.1226H336.49V47.0805H328.705V41.8697C327.806 43.5453 326.498 44.9962 324.782 46.2222C323.065 47.4074 321.063 48 318.774 48C316.281 48 313.972 47.3665 311.847 46.0996C309.762 44.8327 308.087 42.9936 306.82 40.5824C305.553 38.1711 304.92 35.249 304.92 31.8161C304.92 28.3831 305.553 25.4406 306.82 22.9885C308.128 20.5364 309.865 18.6564 312.031 17.3487C314.238 16 316.669 15.3257 319.326 15.3257ZM320.92 22.9272C319.285 22.9272 317.875 23.3563 316.69 24.2146C315.545 25.0319 314.646 26.1149 313.992 27.4636C313.338 28.8123 313.012 30.2631 313.012 31.8161C313.012 34.1456 313.706 36.1277 315.096 37.7625C316.526 39.3972 318.406 40.2146 320.736 40.2146C322.125 40.2146 323.413 39.8467 324.598 39.1111C325.824 38.3755 326.805 37.3538 327.54 36.046C328.317 34.6973 328.705 33.083 328.705 31.2031V26.7893C327.602 25.6041 326.396 24.6641 325.088 23.9693C323.821 23.2746 322.432 22.9272 320.92 22.9272Z" fill="black"/>
<path d="M365.548 24.8276C364.24 24.092 362.871 23.7241 361.441 23.7241C359.642 23.7241 358.151 24.3167 356.966 25.5019C355.78 26.6462 354.738 28.0766 353.839 29.7931V47.0805H346.054V16.1226H353.839V21.9464C354.902 20.1073 356.148 18.5747 357.579 17.3487C359.05 16.1226 360.705 15.5096 362.544 15.5096C363.648 15.5096 364.649 15.6935 365.548 16.0613V24.8276Z" fill="black"/>
<path d="M379.341 2.94253V29.9157L391.969 16.1226H401.716L388.353 29.5479L402.391 47.0805H392.582L383.203 34.7586L379.341 38.6207V47.0805H371.556V2.94253H379.341Z" fill="black"/>
<path d="M418.881 15.3257C421.906 15.3257 424.501 15.9796 426.667 17.2874C428.874 18.5951 430.549 20.4138 431.694 22.7433C432.879 25.0319 433.471 27.6884 433.471 30.7126V34.023H411.034C411.443 36.1073 412.465 37.7829 414.1 39.0498C415.734 40.3167 417.737 40.9502 420.107 40.9502C422.355 40.9502 424.398 40.5006 426.238 39.6015C428.077 38.7024 429.548 37.7829 430.651 36.8429L430.59 44.0766C429.609 44.9349 428.138 45.8135 426.176 46.7126C424.255 47.5709 422.13 48 419.801 48C416.736 48 413.936 47.3052 411.402 45.9157C408.909 44.5262 406.907 42.6258 405.395 40.2146C403.923 37.8033 403.188 35.0447 403.188 31.9387C403.188 28.9144 403.862 26.1558 405.211 23.6628C406.559 21.1699 408.419 19.1673 410.789 17.6552C413.16 16.1022 415.857 15.3257 418.881 15.3257ZM418.697 22.1303C416.777 22.1303 415.162 22.7229 413.854 23.908C412.547 25.0932 411.648 26.6871 411.157 28.6897H425.992C425.829 26.4828 425.012 24.848 423.54 23.7854C422.069 22.682 420.455 22.1303 418.697 22.1303Z" fill="black"/>
<path d="M451.801 7.11111V16.1226H460.383V22.6207H451.801V35.9847C451.801 37.3742 452.107 38.4776 452.72 39.295C453.374 40.0715 454.335 40.4598 455.602 40.4598C456.705 40.4598 457.645 40.3372 458.421 40.092C459.239 39.8467 459.995 39.4994 460.69 39.0498V45.2414C459.913 46.0179 458.932 46.6718 457.747 47.2031C456.603 47.7344 455.152 48 453.395 48C450.616 48 448.347 47.1213 446.59 45.364C444.874 43.5658 444.015 41.1137 444.015 38.0077V22.6207H438.437V18.636C440.398 17.9413 442.197 16.6335 443.831 14.7126C445.507 12.7918 446.835 10.258 447.816 7.11111H451.801Z" fill="black"/>
</svg>
