<svg width="384" height="40" viewBox="0 0 384 40" fill="none" xmlns="http://www.w3.org/2000/svg">
<path d="M6.84547 0C8.07152 0 9.12729 0.442742 10.0128 1.32822C10.8983 2.17965 11.341 3.20136 11.341 4.39336C11.341 5.5513 10.8983 6.57301 10.0128 7.45849C9.12729 8.34398 8.07152 8.78672 6.84547 8.78672C5.61941 8.78672 4.56364 8.34398 3.67816 7.45849C2.82673 6.57301 2.40102 5.5513 2.40102 4.39336C2.40102 3.20136 2.82673 2.17965 3.67816 1.32822C4.56364 0.442742 5.61941 0 6.84547 0ZM10.6258 13.4355V39.2337H4.13793V18.9527H0V13.4355H10.6258Z" fill="black"/>
<path d="M25.2874 13.4355V17.1137C26.0707 16.0579 27.1264 15.0702 28.4547 14.1507C29.8169 13.2312 31.3665 12.7714 33.1034 12.7714C35.7258 12.7714 37.9225 13.6569 39.6935 15.4278C41.4645 17.1988 42.3499 19.8553 42.3499 23.3972V39.2337H35.8621L35.811 24.2656C35.811 22.5287 35.3853 21.2346 34.5338 20.3831C33.7165 19.5317 32.5756 19.106 31.1111 19.106C29.9532 19.106 28.8633 19.4806 27.8416 20.2299C26.854 20.9791 26.0026 21.8646 25.2874 22.8863V39.2337H18.7995V13.4355H25.2874Z" fill="black"/>
<path d="M58.3908 5.92593V13.4355H65.5428V18.8506H58.3908V29.9872C58.3908 31.1452 58.6462 32.0647 59.1571 32.7458C59.702 33.3929 60.5023 33.7165 61.5581 33.7165C62.4776 33.7165 63.261 33.6143 63.908 33.41C64.5892 33.2056 65.2192 32.9161 65.7982 32.5415V37.7011C65.1511 38.3482 64.3338 38.8931 63.3461 39.3359C62.3925 39.7786 61.1835 40 59.719 40C57.4032 40 55.513 39.2678 54.0485 37.8033C52.6181 36.3048 51.9029 34.2614 51.9029 31.6731V18.8506H47.2542V15.53C48.8889 14.951 50.3874 13.8612 51.7497 12.2605C53.146 10.6599 54.2529 8.54832 55.0702 5.92593H58.3908Z" fill="black"/>
<path d="M83.4738 12.7714C85.994 12.7714 88.1567 13.3163 89.9617 14.4061C91.8008 15.496 93.1971 17.0115 94.1507 18.9527C95.1384 20.8599 95.6322 23.0736 95.6322 25.5939V28.3525H76.9349C77.2754 30.0894 78.1269 31.4857 79.4891 32.5415C80.8514 33.5973 82.5202 34.1252 84.4955 34.1252C86.3687 34.1252 88.0715 33.7505 89.6041 33.0013C91.1367 32.252 92.3627 31.4857 93.2822 30.7024L93.2312 36.7305C92.4138 37.4457 91.1877 38.1779 89.553 38.9272C87.9523 39.6424 86.1814 40 84.2401 40C81.6858 40 79.3529 39.421 77.2414 38.2631C75.1639 37.1052 73.4951 35.5215 72.235 33.5121C71.0089 31.5028 70.3959 29.2039 70.3959 26.6156C70.3959 24.0954 70.9579 21.7965 72.0817 19.719C73.2056 17.6416 74.7552 15.9728 76.7305 14.7126C78.7058 13.4185 80.9536 12.7714 83.4738 12.7714ZM83.3206 18.4419C81.7199 18.4419 80.3746 18.9357 79.2848 19.9234C78.195 20.911 77.4457 22.2393 77.037 23.908H89.3997C89.2635 22.069 88.5824 20.7067 87.3563 19.8212C86.1303 18.9017 84.785 18.4419 83.3206 18.4419Z" fill="black"/>
<path d="M117.803 20.6897C116.713 20.0766 115.573 19.7701 114.381 19.7701C112.882 19.7701 111.639 20.2639 110.651 21.2516C109.664 22.2052 108.795 23.3972 108.046 24.8276V39.2337H101.558V13.4355H108.046V18.2886C108.931 16.7561 109.97 15.4789 111.162 14.4572C112.388 13.4355 113.768 12.9246 115.3 12.9246C116.22 12.9246 117.054 13.0779 117.803 13.3844V20.6897Z" fill="black"/>
<path d="M128.225 0C129.451 0 130.507 0.442742 131.392 1.32822C132.278 2.17965 132.72 3.20136 132.72 4.39336C132.72 5.5513 132.278 6.57301 131.392 7.45849C130.507 8.34398 129.451 8.78672 128.225 8.78672C126.999 8.78672 125.943 8.34398 125.057 7.45849C124.206 6.57301 123.78 5.5513 123.78 4.39336C123.78 3.20136 124.206 2.17965 125.057 1.32822C125.943 0.442742 126.999 0 128.225 0ZM132.005 13.4355V39.2337H125.517V18.9527H121.379V13.4355H132.005Z" fill="black"/>
<path d="M152.184 12.7714C154.704 12.7714 157.003 13.3844 159.08 14.6105C161.158 15.8025 162.827 17.4372 164.087 19.5147C165.381 21.5581 166.028 23.857 166.028 26.4112C166.028 28.9655 165.381 31.2644 164.087 33.3078C162.827 35.3512 161.158 36.986 159.08 38.212C157.003 39.404 154.704 40 152.184 40C149.698 40 147.399 39.404 145.287 38.212C143.21 36.986 141.541 35.3512 140.281 33.3078C139.021 31.2644 138.391 28.9655 138.391 26.4112C138.391 23.857 139.021 21.5581 140.281 19.5147C141.541 17.4372 143.21 15.8025 145.287 14.6105C147.399 13.3844 149.698 12.7714 152.184 12.7714ZM152.184 19.0549C150.958 19.0549 149.817 19.3444 148.761 19.9234C147.705 20.5023 146.854 21.3367 146.207 22.4266C145.594 23.5164 145.287 24.8446 145.287 26.4112C145.287 27.9779 145.594 29.3061 146.207 30.3959C146.854 31.4857 147.705 32.3201 148.761 32.8991C149.817 33.444 150.958 33.7165 152.184 33.7165C153.41 33.7165 154.551 33.444 155.607 32.8991C156.662 32.3201 157.514 31.4857 158.161 30.3959C158.808 29.3061 159.132 27.9779 159.132 26.4112C159.132 24.8446 158.808 23.5164 158.161 22.4266C157.514 21.3367 156.662 20.5023 155.607 19.9234C154.551 19.3444 153.41 19.0549 152.184 19.0549Z" fill="black"/>
<path d="M188.404 20.6897C187.314 20.0766 186.173 19.7701 184.981 19.7701C183.482 19.7701 182.239 20.2639 181.252 21.2516C180.264 22.2052 179.395 23.3972 178.646 24.8276V39.2337H172.158V13.4355H178.646V18.2886C179.532 16.7561 180.57 15.4789 181.762 14.4572C182.989 13.4355 184.368 12.9246 185.9 12.9246C186.82 12.9246 187.654 13.0779 188.404 13.3844V20.6897Z" fill="black"/>
<path d="M215.223 13.4355V16.705C216.007 15.7173 216.943 14.8148 218.033 13.9974C219.157 13.1801 220.587 12.7714 222.324 12.7714C224.129 12.7714 225.764 13.1971 227.229 14.0485C228.693 14.8659 229.834 16.109 230.651 17.7778C231.673 16.3814 232.865 15.2065 234.227 14.2529C235.59 13.2652 237.173 12.7714 238.978 12.7714C240.715 12.7714 242.299 13.1801 243.729 13.9974C245.16 14.7808 246.301 15.9557 247.152 17.5224C248.037 19.089 248.48 21.0473 248.48 23.3972V39.2337H241.992L241.941 24.2656C241.941 22.5287 241.481 21.2346 240.562 20.3831C239.676 19.5317 238.501 19.106 237.037 19.106C235.913 19.106 234.943 19.4636 234.125 20.1788C233.308 20.8599 232.542 21.6773 231.826 22.6309V39.2337H225.338L225.287 24.2656C225.287 22.5287 224.828 21.2346 223.908 20.3831C223.023 19.5317 221.865 19.106 220.434 19.106C219.344 19.106 218.374 19.4466 217.522 20.1277C216.671 20.7748 215.905 21.5411 215.223 22.4266V39.2337H208.736V13.4355H215.223Z" fill="black"/>
<path d="M266.105 12.7714C267.501 12.7714 268.914 13.0949 270.345 13.742C271.775 14.3891 272.967 15.2576 273.921 16.3474V13.4355H280.409V39.2337H273.921V34.8914C273.172 36.2878 272.082 37.4968 270.651 38.5185C269.221 39.5062 267.552 40 265.645 40C263.567 40 261.643 39.4721 259.872 38.4163C258.135 37.3606 256.739 35.828 255.683 33.8186C254.628 31.8093 254.1 29.3742 254.1 26.5134C254.1 23.6526 254.628 21.2005 255.683 19.1571C256.773 17.1137 258.221 15.547 260.026 14.4572C261.865 13.3333 263.891 12.7714 266.105 12.7714ZM267.433 19.106C266.071 19.106 264.896 19.4636 263.908 20.1788C262.954 20.8599 262.205 21.7625 261.66 22.8863C261.115 24.0102 260.843 25.2192 260.843 26.5134C260.843 28.4547 261.422 30.1064 262.58 31.4687C263.772 32.831 265.338 33.5121 267.28 33.5121C268.438 33.5121 269.51 33.2056 270.498 32.5926C271.52 31.9796 272.337 31.1281 272.95 30.0383C273.597 28.9144 273.921 27.5692 273.921 26.0026V22.3244C273.001 21.3367 271.997 20.5534 270.907 19.9745C269.851 19.3955 268.693 19.106 267.433 19.106Z" fill="black"/>
<path d="M304.623 20.6897C303.533 20.0766 302.393 19.7701 301.201 19.7701C299.702 19.7701 298.459 20.2639 297.471 21.2516C296.484 22.2052 295.615 23.3972 294.866 24.8276V39.2337H288.378V13.4355H294.866V18.2886C295.751 16.7561 296.79 15.4789 297.982 14.4572C299.208 13.4355 300.587 12.9246 302.12 12.9246C303.04 12.9246 303.874 13.0779 304.623 13.3844V20.6897Z" fill="black"/>
<path d="M316.117 2.45211V24.9298L326.641 13.4355H334.764L323.627 24.6232L335.326 39.2337H327.152L319.336 28.9655L316.117 32.1839V39.2337H309.63V2.45211H316.117Z" fill="black"/>
<path d="M349.068 12.7714C351.588 12.7714 353.751 13.3163 355.556 14.4061C357.395 15.496 358.791 17.0115 359.745 18.9527C360.732 20.8599 361.226 23.0736 361.226 25.5939V28.3525H342.529C342.869 30.0894 343.721 31.4857 345.083 32.5415C346.445 33.5973 348.114 34.1252 350.089 34.1252C351.963 34.1252 353.665 33.7505 355.198 33.0013C356.731 32.252 357.957 31.4857 358.876 30.7024L358.825 36.7305C358.008 37.4457 356.782 38.1779 355.147 38.9272C353.546 39.6424 351.775 40 349.834 40C347.28 40 344.947 39.421 342.835 38.2631C340.758 37.1052 339.089 35.5215 337.829 33.5121C336.603 31.5028 335.99 29.2039 335.99 26.6156C335.99 24.0954 336.552 21.7965 337.676 19.719C338.799 17.6416 340.349 15.9728 342.324 14.7126C344.3 13.4185 346.547 12.7714 349.068 12.7714ZM348.914 18.4419C347.314 18.4419 345.969 18.9357 344.879 19.9234C343.789 20.911 343.04 22.2393 342.631 23.908H354.994C354.857 22.069 354.176 20.7067 352.95 19.8212C351.724 18.9017 350.379 18.4419 348.914 18.4419Z" fill="black"/>
<path d="M376.501 5.92593V13.4355H383.653V18.8506H376.501V29.9872C376.501 31.1452 376.756 32.0647 377.267 32.7458C377.812 33.3929 378.612 33.7165 379.668 33.7165C380.587 33.7165 381.371 33.6143 382.018 33.41C382.699 33.2056 383.329 32.9161 383.908 32.5415V37.7011C383.261 38.3482 382.444 38.8931 381.456 39.3359C380.502 39.7786 379.293 40 377.829 40C375.513 40 373.623 39.2678 372.158 37.8033C370.728 36.3048 370.013 34.2614 370.013 31.6731V18.8506H365.364V15.53C366.999 14.951 368.497 13.8612 369.86 12.2605C371.256 10.6599 372.363 8.54832 373.18 5.92593H376.501Z" fill="black"/>
</svg>
