<svg width="55" height="55" viewBox="0 0 55 55" fill="none" xmlns="http://www.w3.org/2000/svg">
<path d="M49.084 0.599976H5C2.23858 0.599976 0 2.83855 0 5.59997V39.916C0 42.6774 2.23858 44.916 5 44.916H49.084C51.8454 44.916 54.084 42.6774 54.084 39.916V5.59998C54.084 2.83855 51.8454 0.599976 49.084 0.599976Z" fill="#122033"/>
<path d="M27.18 54.84L33.1556 44.49H21.2044L27.18 54.84Z" fill="#122033"/>
<path d="M11.4 14.4137V13.7999H19.0805V14.4137H18.721C17.8968 14.4137 17.3532 14.4838 17.099 14.6329C16.8447 14.7819 16.6694 15.0537 16.5817 15.4482C16.494 15.8428 16.4502 16.7897 16.4502 18.289V27.118C16.4502 28.5296 16.4852 29.459 16.5466 29.8973C16.608 30.3357 16.7746 30.6601 17.0464 30.8706C17.3182 31.081 17.8267 31.1862 18.5895 31.1862H19.0892V31.7999H11.4088V31.1862H11.9085C12.6275 31.1862 13.1272 31.0897 13.399 30.8969C13.6796 30.704 13.8549 30.3971 13.9251 29.985C13.9952 29.5729 14.0391 28.6173 14.0391 27.1092V18.2802C14.0391 16.8511 14.004 15.9217 13.9251 15.5096C13.8549 15.0975 13.6884 14.8082 13.4253 14.6504C13.1711 14.4926 12.6187 14.4137 11.7682 14.4137H11.4Z" fill="white"/>
<path d="M31.4867 28.6962L37.6065 13.7999H42.7619V14.4137H42.1394C41.3153 14.4137 40.7717 14.4838 40.5174 14.6329C40.2631 14.7819 40.0878 15.0537 40.0001 15.4482C39.9124 15.8428 39.8686 16.7897 39.8686 18.289V27.118C39.8686 28.5296 39.9037 29.459 39.965 29.8973C40.0352 30.3357 40.2018 30.6601 40.4648 30.8706C40.7366 31.081 41.2451 31.1862 42.0079 31.1862H42.7532V31.7999H34.7307V31.1862H35.3269C36.0371 31.1862 36.5281 31.0897 36.8087 30.8969C37.0892 30.704 37.2646 30.3971 37.3435 29.985C37.4224 29.5729 37.4575 28.6173 37.4575 27.1092V15.6587L30.8116 31.7999H30.2329L23.5257 15.6587V26.1974C23.5257 27.6441 23.5695 28.626 23.6484 29.1433C23.7273 29.6694 23.9904 30.1253 24.42 30.5199C24.8496 30.9144 25.4546 31.1336 26.2261 31.1862V31.7999H20.2203V31.1862C20.9392 31.1424 21.5267 30.9319 21.9738 30.5549C22.421 30.1779 22.7015 29.7132 22.798 29.1696C22.8944 28.626 22.947 27.6002 22.947 26.1185V18.289C22.947 16.8598 22.9032 15.9305 22.833 15.5184C22.7541 15.1063 22.5875 14.817 22.3333 14.6592C22.079 14.5013 21.5267 14.4224 20.6762 14.4224H20.2203V13.8087H25.3318L31.4867 28.6962Z" fill="white"/>
</svg>
