<svg width="416" height="96" viewBox="0 0 416 96" fill="none" xmlns="http://www.w3.org/2000/svg">
<path d="M137.494 0C142.086 0 145.913 3.82469 145.913 8.41433C145.913 13.004 142.086 16.8287 137.494 16.8287C132.902 16.8287 129.075 13.004 129.075 8.41433C128.884 3.82469 132.711 0 137.494 0Z" fill="white"/>
<path d="M398.664 0C403.256 0 407.082 3.82469 407.082 8.41433C407.082 13.004 403.256 16.8287 398.664 16.8287C394.072 16.8287 390.245 13.004 390.245 8.41433C390.245 3.82469 394.072 0 398.664 0Z" fill="white"/>
<path d="M116.065 3.05984V0.573792H85.2603L59.6218 67.1235L31.4959 0.765023H0.5V3.25108H12.3626V82.231C12.3626 93.8963 0.5 91.984 0.5 92.3664V94.8525H25.9472V92.3664C25.9472 91.6015 15.2326 93.8963 15.2326 82.231V8.98812L48.1418 93.5139C48.7158 94.47 49.0985 94.47 50.0551 94.47C51.0118 94.47 51.5858 94.2788 51.9685 93.5139L85.069 8.60565V91.984H73.2064V94.47H115.874V91.984H104.776V2.86861H115.874V3.05984H116.065Z" fill="white"/>
<path d="M330.931 87.012L330.357 86.4383C330.166 86.247 329.783 86.247 329.592 86.4383C328.061 87.9682 324.426 91.6016 320.791 91.6016C317.921 91.6016 315.051 88.9243 315.051 82.8048V39.9682H328.827V37.8647H315.242V6.88464H313.137C313.137 22.9484 299.553 35.9523 289.795 37.291V39.3945H297.066V78.7889C297.066 89.8805 302.614 95.4263 313.329 95.4263C323.087 95.4263 328.635 89.8805 330.74 87.5857C330.931 87.5857 331.123 87.3945 330.931 87.012Z" fill="white"/>
<path d="M375.129 87.012L374.555 86.4383C374.363 86.247 373.981 86.247 373.789 86.4383C372.259 87.9682 368.623 91.6016 364.988 91.6016C362.118 91.6016 359.248 88.9243 359.248 82.8048V39.9682H373.024V37.8647H359.248V6.88464H357.335C357.335 22.9484 343.75 35.9523 333.992 37.291V39.3945H341.263V78.7889C341.263 89.8805 346.811 95.4263 357.526 95.4263C367.284 95.4263 373.024 89.8805 374.937 87.5857C375.511 87.5857 375.703 87.3945 375.129 87.012Z" fill="white"/>
<path d="M145.913 92.1756V38.2475V36.5264C145.913 35.5702 145.147 35.3789 144.382 35.5702C142.277 36.1439 137.303 37.4825 131.371 37.4825H119.317V39.9686H128.501V92.1756H119.317V94.6617H153.949V92.1756H145.913Z" fill="white"/>
<path d="M224.359 92.1755V52.3987C224.359 43.6019 219.575 33.8489 206.182 33.8489C197.19 33.8489 190.493 38.6298 185.901 47.4266V39.9684V36.5262C185.901 35.5701 185.136 35.3788 184.37 35.5701C182.266 36.1438 177.291 37.4824 171.36 37.4824H159.306V39.9684H168.49V92.1755H159.306V94.6616H193.937V92.1755H185.71V60.6218C185.901 40.7334 199.294 38.4386 201.207 38.4386C203.312 38.4386 206.947 40.1597 206.947 45.5143V92.1755H197.764V94.6616H232.395V92.1755H224.359Z" fill="white"/>
<path d="M407.464 92.1756V38.2475V36.5264C407.464 35.5702 406.699 35.3789 405.934 35.5702C403.829 36.1439 398.854 37.4825 392.923 37.4825H380.869V39.9686H390.053V92.1756H380.869V94.6617H415.5V92.1756H407.464Z" fill="white"/>
<path d="M260.138 33.6575C242.535 33.6575 228.186 47.6176 228.186 64.8287C228.186 82.0399 242.535 96 260.138 96C277.741 96 292.091 82.0399 292.091 64.8287C292.473 47.6176 278.123 33.6575 260.138 33.6575ZM271.044 79.3626C271.044 89.3068 266.835 93.3227 260.138 93.3227C253.441 93.3227 249.232 89.1155 249.232 79.3626V50.4861C249.232 40.5419 253.441 36.526 260.138 36.526C266.835 36.526 271.044 40.7332 271.044 50.4861V79.3626Z" fill="white"/>
</svg>
