<svg width="330" height="96" viewBox="0 0 330 96" fill="none" xmlns="http://www.w3.org/2000/svg">
<path fill-rule="evenodd" clip-rule="evenodd" d="M0 0.255531H20.0615V40.3907L51.3823 0H74.8075L40.5074 41.8113L77.783 93.3012H52.8032L26.7135 57.5478L20.0615 57.373V93.3012H0V0.255531Z" fill="white"/>
<path fill-rule="evenodd" clip-rule="evenodd" d="M115.198 93.5416C114.554 89.5309 114.554 86.5545 114.554 84.616C107.334 95.0939 98.6942 95.0939 95.084 95.0939C85.671 95.0939 81.415 92.3774 78.8355 89.919C74.9681 86.0364 73.1621 80.7334 73.1621 75.5586C73.1621 70.3818 74.9681 60.8082 86.9588 55.2452C94.9545 51.6226 106.429 51.6226 112.746 51.6226C112.746 47.352 112.617 45.2835 111.843 42.9513C110.167 38.1645 105.137 37.5184 103.333 37.5184C100.628 37.5184 97.7893 38.6845 96.1128 41.1428C94.6954 43.3413 94.6954 45.4116 94.6954 46.9639H76.0007C76.1302 43.4713 76.5151 36.4823 83.3505 31.5673C89.283 27.2967 96.8882 26.2644 103.08 26.2644C108.492 26.2644 119.839 27.1705 126.286 34.6738C130.669 39.9768 130.799 47.7419 130.799 50.7146L130.928 76.979C130.928 82.5419 131.315 88.1067 132.475 93.5397L115.198 93.5416ZM91.7329 73.3582C91.7329 77.757 94.6973 82.6738 101.015 82.6738C104.497 82.6738 107.334 80.9915 109.138 78.9231C112.491 74.7824 112.75 69.7356 112.75 62.7466C100.5 61.7143 91.7329 65.595 91.7329 73.3582ZM138.151 44.2474C138.151 41.1429 137.636 31.6954 137.25 27.9447H155.173L155.558 40.4929C158.007 34.93 163.936 27.6546 171.782 27.8166V45.0235C159.033 45.0235 157.234 53.1749 157.234 61.3262V93.5416H138.151V44.2474ZM214.351 92.6355C208.165 94.3177 202.621 94.7077 199.527 94.7077C180.314 94.7077 180.314 82.5438 180.314 77.1108V41.2728H173.762V28.5947H180.314V15.7846L199.268 8.79937V28.5947H208.79V41.2728H199.268V70.7717C199.4 76.7209 199.4 80.4735 207.908 80.4735C210.746 80.4735 212.036 80.3454 214.355 80.0854V92.6355H214.351ZM236.183 65.725C236.183 69.9956 236.183 83.1918 250.993 83.1918C256.314 83.1918 261.63 81.3796 263.647 74.1344H283.062C282.773 77.237 282.054 82.8019 276.157 88.3648C270.837 93.4116 261.343 96 250.702 96C244.52 96 232.725 94.9639 225.104 87.8487C218.49 81.6377 215.757 72.8402 215.757 62.3604C215.757 51.7507 218.627 39.0725 230.857 31.4374C236.462 28.0747 243.367 26.0044 251.277 26.0044C261.628 26.0044 273.996 29.627 280.61 41.789C285.501 50.7146 285.212 60.2901 284.926 65.725H236.183ZM263.218 53.691C263.218 50.7146 262.929 39.0706 250.561 39.0706C241.212 39.0706 237.332 46.0578 236.9 53.691H263.218ZM287.895 0H306.98V93.5416H287.895V0ZM310.918 0H330V93.5416H310.918V0Z" fill="white"/>
</svg>
