<svg width="294" height="96" viewBox="0 0 294 96" fill="none" xmlns="http://www.w3.org/2000/svg">
<path d="M0 35.6382H23.0863L36.8888 65.2503L51.3056 35.6382H74.0807L43.9968 93.1562H29.7644L0 35.6382Z" fill="white"/>
<path d="M98.2728 93.1557V35.6377H76.7285V93.1557H98.2728Z" fill="white"/>
<path d="M87.6127 28.124C95.3791 28.124 101.673 21.8309 101.673 14.0616C101.673 6.29233 95.3791 0 87.6127 0C79.8501 0 73.5557 6.29308 73.5557 14.0624C73.5557 21.8316 79.8501 28.124 87.6127 28.124Z" fill="white"/>
<path d="M109.575 17.8089L130.344 17.6543L130.338 35.639H142.755L142.895 52.2289L130.345 52.3805L130.211 93.157H109.285L109.418 52.3805H103.222L103.219 35.639H109.461L109.575 17.8089Z" fill="white"/>
<path d="M148.015 35.6386H169.553L169.402 43.8559C169.402 43.8559 175.68 33.1551 190.704 34.3984C190.63 44.0866 190.71 45.869 190.704 53.9317C184.037 50.8307 169.42 53.7196 169.359 63.0801C169.317 69.2821 169.317 93.1559 169.317 93.1559H148.033L148.015 35.6386Z" fill="white"/>
<path d="M213.852 34.5873C223.009 32.5197 232.651 35.4848 239.209 41.7771C239.142 39.7461 239.154 35.6386 239.154 35.6386H258.577L258.292 93.1566H238.9C238.9 93.1566 238.712 89.0222 238.918 86.8031C230.694 97.0364 215.634 98.2005 204.599 91.1107C196.399 85.8391 192.363 77.9585 191.09 68.7945C188.993 53.6905 198.26 38.1131 213.852 34.5873ZM225.84 78.9285C233.609 78.9285 239.9 72.6294 239.9 64.8639C239.9 57.0976 233.609 50.8016 225.84 50.8016C218.077 50.8016 211.786 57.0976 211.786 64.8639C211.786 72.6294 218.076 78.9285 225.84 78.9285Z" fill="white"/>
<path d="M279.946 96C287.709 96 294 89.701 294 81.9355C294 74.1692 287.709 67.8701 279.946 67.8701C272.177 67.8701 265.887 74.1692 265.887 81.9355C265.887 89.701 272.177 96 279.946 96Z" fill="white"/>
</svg>
